# xmcd
#
# Track frame offsets:
#	150
#	11648
#	22208
#	34178
#	44326
#	54534
#	66242
#	77237
#	86470
#	94833
#	105731
#	116839
#
# Disc length: 1719 seconds
#
# Revision: 1
# Processed by: cddbd v1.5.2PL0 Copyright (c) Steve Scherf et al.
# Submitted via: audiograbber 1.83.01
#
DISCID=a006b50c
DTITLE=Don Gibson - The Best Of
DYEAR=1965
DGENRE=Country
TTITLE0=I Can't Stop Lovin' You
TTITLE1=(I'd Be) A Legend In My Time
TTITLE2=Just One Time
TTITLE3=I Think It's Best (To Forget Me)
TTITLE4=Lonesome Number One
TTITLE5=God Walks These Hills With Me
TTITLE6=Oh Lonesome Me
TTITLE7=It's My Way
TTITLE8=Blue, Blue Day
TTITLE9=It's A Sin
TTITLE10=Sea Of Heartbreak
TTITLE11=Where No One Stands Alone
EXTD=
EXTT0=
EXTT1=
EXTT2=
EXTT3=
EXTT4=
EXTT5=
EXTT6=
EXTT7=
EXTT8=
EXTT9=
EXTT10=
EXTT11=
PLAYORDER=
